<svg xmlns="http://www.w3.org/2000/svg" width="76.703" height="75.682" viewBox="0 0 76.703 75.682">
  <path id="icone_aquisicao" d="M37.785,30.964A2.654,2.654,0,0,0,40.3,29.049l10.2-33.259a2.847,2.847,0,0,0-.382-2.459A2.612,2.612,0,0,0,47.989-7.8H-6.506L-8.86-14.63a2.7,2.7,0,0,0-1.526-1.631l-12.07-4.918a2.611,2.611,0,0,0-3.392,1.467c-.01.029-.022.059-.034.091a2.785,2.785,0,0,0,1.5,3.566l10.951,4.463L-.042,27.258l-5.07,10.194a2.848,2.848,0,0,0,.091,2.694,2.622,2.622,0,0,0,2.258,1.32h.446a8.2,8.2,0,0,0-.348.757,9.036,9.036,0,0,0,0,6.777A8.674,8.674,0,0,0-.873,51.766,8.3,8.3,0,0,0,1.785,53.63a8.066,8.066,0,0,0,6.515,0,8.271,8.271,0,0,0,2.657-1.864A8.675,8.675,0,0,0,12.75,49a9.036,9.036,0,0,0,0-6.777c-.105-.257-.22-.509-.348-.757h13.53a8.2,8.2,0,0,0-.348.757,9.036,9.036,0,0,0,0,6.777,8.675,8.675,0,0,0,1.793,2.765,8.3,8.3,0,0,0,2.657,1.864,8.072,8.072,0,0,0,6.518,0,8.325,8.325,0,0,0,2.657-1.864A8.626,8.626,0,0,0,41,49a9.036,9.036,0,0,0,0-6.777c-.1-.257-.22-.509-.348-.757h2.163a2.753,2.753,0,0,0,0-5.5H1.582l2.484-5Zm-13.554-5.5H16.341L15.2,13.848H25.426ZM31.468-2.3h12.9L40.8,9.319H30.27ZM29.807,13.848h9.614L35.857,25.465h-7.24ZM27.089-2.3l-1.2,11.617H14.756L13.615-2.3ZM-.606,9.319l-4-11.617H9.236L10.377,9.319ZM9.057,45.6a4.016,4.016,0,1,1-4.514-4.142h1A4.122,4.122,0,0,1,9.057,45.6m28.245,0a4.016,4.016,0,1,1-4.514-4.142h1A4.122,4.122,0,0,1,37.3,45.6M.955,13.848h9.868l1.141,11.617H4.959Z" transform="translate(26.071 21.365)" fill="#fff"/>
</svg>
