<?xml version="1.0" encoding="UTF-8"?>
<svg id="Layer_2" data-name="Layer 2" xmlns="http://www.w3.org/2000/svg" viewBox="0 0 52.47 52.57">
  <defs>
    <style>
      .cls-1 {
        fill: #fff;
      }
    </style>
  </defs>
  <g id="Layer_1-2" data-name="Layer 1">
    <path class="cls-1" d="M52.35,38.28c-.25,8-6.11,13.86-14.11,14.07-6.86,.18-13.72,.28-20.58,.19-2.66-.03-5.41-.35-7.94-1.13-5.34-1.63-8.29-5.59-9.24-11C.12,38.36,0,36.23,0,34.14c0-6.66,.04-13.32,.22-19.98C.44,6.33,6.38,.41,14.21,.22,21.06,.05,27.93-.04,34.78,.02c2.51,.02,5.1,.27,7.5,.94,5.66,1.58,9.03,5.56,9.77,11.31,.59,4.62,.42,22.01,.3,26.01ZM4.57,26.19c.13,4.21,.17,8.46,.43,12.69,.28,4.41,3.2,7.71,7.52,8.44,2.37,.4,4.81,.5,7.21,.49,6.34,0,12.69-.05,19.03-.27,2.78-.1,5.19-1.31,6.92-3.63,1.57-2.1,2.05-4.55,2.08-7.05,.08-7.06,.08-14.13,0-21.19-.03-2.42-.47-4.81-1.94-6.87-2.14-3-5.3-3.99-8.73-4.01-7.73-.05-15.47-.03-23.2,.2-5.02,.15-8.61,3.81-8.92,8.79-.26,4.11-.29,8.24-.43,12.4Zm17.12,.1v14.93h6.74v-14.94h4.03c.18-1.68,.37-3.35,.55-5.03h-4.58c0-.05,0-.09,0-.13,0-.96,0-1.92,0-2.88,0-.25,.02-.51,.06-.76,.06-.43,.28-.75,.69-.93,.37-.16,.77-.19,1.16-.2,.96,0,1.93,0,2.89,0,.05,0,.1,0,.16,0v-5.02h-.15c-.98,0-1.96,0-2.95,0-1.01,0-2.03,.01-3.04,.06-.77,.03-1.52,.2-2.24,.49-1.17,.46-2.05,1.23-2.61,2.36-.5,1.02-.68,2.12-.71,3.24-.03,1.2,0,2.4-.01,3.6,0,.05,0,.11,0,.17h-2.61v5.03h2.62Z"/>
  </g>
</svg>