<?xml version="1.0" encoding="UTF-8"?>
<svg id="Layer_2" data-name="Layer 2" xmlns="http://www.w3.org/2000/svg" viewBox="0 0 36.02 36.02">
  <defs>
    <style>
      .cls-1 {
        fill: #233e80;
      }
    </style>
  </defs>
  <g id="Layer_1-2" data-name="Layer 1">
    <path class="cls-1" d="M23.84,18.01l10.97-10.97c1.61-1.61,1.61-4.22,0-5.83-1.61-1.61-4.22-1.61-5.83,0l-10.97,10.97L7.04,1.21C5.43-.4,2.82-.4,1.21,1.21-.4,2.82-.4,5.43,1.21,7.04l10.97,10.97L1.21,28.98c-1.61,1.61-1.61,4.22,0,5.83s4.22,1.61,5.83,0l10.97-10.97,10.97,10.97c1.61,1.61,4.22,1.61,5.83,0s1.61-4.22,0-5.83l-10.97-10.97Z"/>
  </g>
</svg>