<?xml version="1.0" encoding="UTF-8"?>
<svg id="Layer_2" data-name="Layer 2" xmlns="http://www.w3.org/2000/svg" viewBox="0 0 52.22 52.63">
  <defs>
    <style>
      .cls-1 {
        fill: #fff;
        fill-rule: evenodd;
      }
    </style>
  </defs>
  <g id="Layer_1-2" data-name="Layer 1">
    <g>
      <path class="cls-1" d="M0,52.63c.06-.29,.14-.46,.21-.65,1.39-4.2,2.81-8.41,4.22-12.61,.15-.37,.09-.67-.09-1C1.88,34.1,.74,29.45,.95,24.54,1.47,12.56,10.16,2.51,22.01,.44c8.86-1.53,16.6,.98,22.95,7.39,4.17,4.15,6.5,9.31,7.12,15.16,.58,5.45-.59,10.78-3.19,15.31-2.29,4.07-5.74,7.51-10.04,9.86-3.4,1.86-7.02,2.88-10.84,3.08-4.72,.26-9.13-.69-13.26-2.84-.39-.2-.68-.24-1.06-.09-4.35,1.4-8.73,2.78-13.06,4.19-.18,.04-.36,.08-.62,.15Zm6.62-6.55c.38-.11,.59-.16,.8-.22,2.26-.75,4.55-1.47,6.79-2.22,.38-.1,.65-.09,1,.11,4.27,2.7,8.95,3.71,13.94,3.13,4.52-.55,8.52-2.33,11.84-5.45,5.64-5.3,7.92-11.86,6.61-19.52-.97-5.91-4.5-11.1-9.54-14.3-3-1.93-6.55-3.12-10.41-3.34-4.6-.25-8.86,.89-12.69,3.44-6.37,4.25-9.64,10.26-9.82,17.89-.06,4.38,1.23,8.42,3.74,12.06,.3,.42,.33,.79,.18,1.26-.56,1.6-1.09,3.19-1.65,4.8-.24,.74-.47,1.47-.8,2.36Z"/>
      <path class="cls-1" d="M14.18,20.01c.03-2.11,.85-3.83,2.36-5.26,.52-.51,1.17-.67,1.85-.69q1.85-.04,2.6,1.68c.54,1.36,1.14,2.72,1.67,4.07,.21,.44,.25,.86-.03,1.26-.47,.66-.96,1.36-1.5,1.98-.41,.49-.47,.9-.13,1.42,2.02,3.37,4.83,5.81,8.49,7.27,.5,.2,.89,.14,1.21-.26,.62-.76,1.27-1.51,1.86-2.28,.47-.61,.71-.76,1.39-.45,1.78,.8,3.5,1.65,5.23,2.49,.49,.24,.45,.69,.45,1.12-.13,2.73-1.37,4.09-4.52,5.09-1.61,.51-3.12,.05-4.62-.4-5.73-1.61-10.01-5.15-13.32-9.98-1.09-1.6-2.18-3.22-2.67-5.15-.14-.64-.19-1.29-.31-1.92Z"/>
    </g>
  </g>
</svg>