<svg xmlns="http://www.w3.org/2000/svg" width="89.403" height="87.963" viewBox="0 0 89.403 87.963">
  <path id="icone_reciclagem" d="M31.66,51.837,20.678,44.683a1.546,1.546,0,0,1-.455-2.078,1.455,1.455,0,0,1,.455-.474l10.941-7.14a1.41,1.41,0,0,1,1.99.486,1.563,1.563,0,0,1,.215.79V38.4a1.478,1.478,0,0,0,1.445,1.508H45.485c3.2,0,5.673-.01,8.005-.032a13.6,13.6,0,0,0,4.031-.609,4.51,4.51,0,0,0,2.8-2.315,4.975,4.975,0,0,0,.09-3.816A23.133,23.133,0,0,0,58.594,29.2c-1.332-2.351-4.292-7.455-5.712-9.9a1.543,1.543,0,0,1,.491-2.068s.007,0,.01,0l3.4-2.1a1.41,1.41,0,0,1,1.973.53c.682,1.207,1.625,2.877,2.034,3.6,1.467,2.589,2.982,5.267,4.429,7.917,2.149,3.935,2.757,7.511,1.86,10.931-1.168,4.476-4.224,7.211-9.342,8.367a24.255,24.255,0,0,1-5.006.467c-2.227.022-4.671.032-7.69.032H35.3a1.479,1.479,0,0,0-1.445,1.508v2.09a1.476,1.476,0,0,1-1.445,1.508,1.369,1.369,0,0,1-.753-.235m-39.3-4.908a22.74,22.74,0,0,1-5.791-.746,11.247,11.247,0,0,1-7.252-5.7,13.022,13.022,0,0,1-.455-10,22.938,22.938,0,0,1,1.625-3.713c2.234-4.136,4.532-8.328,6.754-12.38q1.338-2.438,2.672-4.876c.174-.313.337-.628.513-.97l.257-.491a1.548,1.548,0,0,0-.5-2l-.555-.362a1.545,1.545,0,0,1-.452-2.078,1.447,1.447,0,0,1,.486-.494l9.327-5.727a1.41,1.41,0,0,1,1.973.552,1.537,1.537,0,0,1,.193.743V10.433a1.476,1.476,0,0,1-1.449,1.5,1.416,1.416,0,0,1-.755-.227l-.462-.3a1.41,1.41,0,0,0-1.99.484l-.022.039-1.611,2.9L-7.7,19.46q-3.142,5.643-6.284,11.283c-1.381,2.474-1.684,4.551-.9,6.169s2.527,2.581,5.2,2.892a18.155,18.155,0,0,0,2.063.09H12.13A1.476,1.476,0,0,1,13.575,41.4v4.05a1.476,1.476,0,0,1-1.445,1.508c-2.928,0-8.528.02-10.237.02-3.72,0-6.749-.015-9.53-.051m55.1-41.167L37.8-.026a1.542,1.542,0,0,1-.526-2.061,1.457,1.457,0,0,1,.486-.526l.768-.494a1.545,1.545,0,0,0,.489-2.043l-.633-1.129c-.428-.763-.841-1.508-1.261-2.241q-1.085-1.918-2.173-3.833c-2.1-3.715-4.282-7.56-6.465-11.315a19.878,19.878,0,0,0-2.755-3.725,4.2,4.2,0,0,0-3.036-1.486,4.192,4.192,0,0,0-2.9,1.322A17.648,17.648,0,0,0,16.9-23.885c-1.545,2.6-5.725,9.833-7.423,12.776a1.407,1.407,0,0,1-1.958.521L4.215-12.6A1.546,1.546,0,0,1,3.7-14.66c1.721-3.055,5.734-10.178,7.484-13.077A21.621,21.621,0,0,1,15.2-32.728a11.372,11.372,0,0,1,7.524-3.163,11.315,11.315,0,0,1,8.015,3.737,24.156,24.156,0,0,1,3.578,4.8c2.381,4.077,4.732,8.274,7.005,12.334q1.364,2.435,2.73,4.864c.156.276.313.55.489.856l.276.484A1.41,1.41,0,0,0,46.8-8.3h0l.631-.4a1.409,1.409,0,0,1,1.982.513,1.575,1.575,0,0,1,.208.772V4.457a1.478,1.478,0,0,1-1.445,1.508,1.38,1.38,0,0,1-.716-.2" transform="translate(21.921 35.891)" fill="#fff"/>
</svg>
