<svg xmlns="http://www.w3.org/2000/svg" width="60.549" height="75.681" viewBox="0 0 60.549 75.681">
  <path id="icone_destruicao_de_dados" d="M16.086,36.579,13.392,40.13a1.682,1.682,0,0,1-.23.247,1.366,1.366,0,0,1-.127.14,4.995,4.995,0,0,1-7.059-7.069,1.32,1.32,0,0,1,.137-.122,1.784,1.784,0,0,1,.2-.186A20.811,20.811,0,0,1-.048,27.365H-4.6V38.923A5.251,5.251,0,0,0,.643,44.169H23.37V36.731a31.508,31.508,0,0,1-7.284-.152M.2,41.321A1.779,1.779,0,1,1,1.983,39.54,1.779,1.779,0,0,1,.2,41.321M39.45-13.213a1.873,1.873,0,0,0,1.874-1.871,1.874,1.874,0,0,0-1.874-1.874,1.872,1.872,0,0,0-1.874,1.874,1.872,1.872,0,0,0,1.874,1.871ZM7.173,34.392c-.044.039-.093.071-.14.108a3.5,3.5,0,0,0,4.948,4.945c.042-.044.071-.093.113-.14a.64.64,0,0,0,.108-.091l12.144-16a.764.764,0,0,0-1.07-1.073l-16,12.144a.7.7,0,0,0-.1.108M-1.1-13.215A1.872,1.872,0,0,0,.778-15.089,1.874,1.874,0,0,0-1.1-16.963,1.875,1.875,0,0,0-2.97-15.089,1.871,1.871,0,0,0-1.1-13.213h0Zm20.273.928a22.261,22.261,0,0,0-9.116,42.571l5-3.792a17.029,17.029,0,1,1,8.8-.154l-4.475,5.9a22.263,22.263,0,0,0-.2-44.526ZM37.863-25.239H.491A11.6,11.6,0,0,0-11.1-13.649v52.5A11.6,11.6,0,0,0,.491,50.442H37.86A11.6,11.6,0,0,0,49.45,38.849v-52.5a11.6,11.6,0,0,0-11.588-11.59Zm6.344,64.088A6.349,6.349,0,0,1,37.863,45.2H.491a6.351,6.351,0,0,1-6.346-6.346v-52.5A6.355,6.355,0,0,1,.491-19.993H37.863a6.352,6.352,0,0,1,6.344,6.346Zm-4.757.127a1.874,1.874,0,1,0,1.874,1.874,1.874,1.874,0,0,0-1.874-1.874Zm-12.575-29a7.7,7.7,0,1,0-7.7,7.7,7.7,7.7,0,0,0,7.7-7.7Zm-7.7,2.452a2.453,2.453,0,1,1,2.454-2.452,2.453,2.453,0,0,1-2.454,2.452Z" transform="translate(11.099 25.239)" fill="#fff"/>
</svg>
