<?xml version="1.0" encoding="UTF-8"?>
<svg id="Layer_2" data-name="Layer 2" xmlns="http://www.w3.org/2000/svg" viewBox="0 0 24.72 31.47">
  <defs>
    <style>
      .cls-1 {
        fill: #fff;
      }
    </style>
  </defs>
  <g id="Layer_1-2" data-name="Layer 1">
    <path class="cls-1" d="M4.72,6.19c-.38,.02-.71-.27-.73-.66,.02-.39,.35-.69,.73-.67h15.29c.38-.02,.71,.27,.73,.67-.02,.39-.35,.69-.73,.66H4.72Zm0,3.09c-.38,.02-.71-.28-.73-.67,.02-.39,.35-.69,.73-.66h15.29c.38-.02,.71,.28,.73,.66-.02,.39-.35,.69-.73,.67H4.72Zm0,3.09c-.38,.02-.71-.27-.73-.67,.02-.39,.35-.69,.73-.66h7.97c.38-.02,.71,.28,.73,.66-.02,.39-.35,.69-.73,.67H4.72Zm-.22,8.57l5.72-5.61,3.92,3.3,4.92-4.82,.72,.76-5.59,5.48-3.92-3.3-5.05,4.96-.72-.76Zm.37,2.16h3.04v3.97h-3.04v-3.97Zm3.92-3.28h3.04v7.25h-3.04v-7.25Zm3.92,1.56h3.04v5.69h-3.04v-5.69Zm3.92-2.48h3.04v8.17h-3.04v-8.17ZM1.46,2.22V29.26c0,.4,.32,.72,.71,.72H22.55c.39,0,.71-.32,.71-.72V2.22c0-.4-.32-.72-.71-.72H2.17c-.39,0-.71,.32-.71,.72m.71,29.25C.97,31.47,0,30.48,0,29.26V2.22C0,.99,.97,0,2.17,0H22.55c1.2,0,2.17,.99,2.17,2.22h0V29.26c0,1.22-.97,2.22-2.17,2.22H2.17Z"/>
  </g>
</svg>