<svg xmlns="http://www.w3.org/2000/svg" width="87.653" height="72.846" viewBox="0 0 87.653 72.846">
  <path id="icone_logistica_reversa" d="M28.269,43.089a1.9,1.9,0,0,1-1.839-1.6,1.866,1.866,0,0,1,1.3-2.043,20.661,20.661,0,0,0,8.149-4.529c-3.87-2.929-13.229-11.208-13.8-23.134-.492-10.3,5.709-20.53,18.431-30.4,3.694-3.248,6.723-7.39,6.238-8.533a1.854,1.854,0,0,1-.142-.708,1.877,1.877,0,0,1,1.55-1.835,1.956,1.956,0,0,1,1.656.446c1.068.918,20.42,17.848,18.152,38.638a41.81,41.81,0,0,1-7.292,19.923c-6.667,9.165-16.93,13.8-30.523,13.8-.62,0-1.244-.007-1.879-.027M50.7-9.52c.105.145,9.692,14.926-4.71,38.067A39.083,39.083,0,0,1,36.962,38.9C58.731,35.721,63.235,17.413,64.147,8.994c1.626-14.892-9.175-27.787-14.306-33-1.612,3.451-5.325,6.912-6.807,8.21-.027.022-.056.049-.086.071C31.223-6.644,25.492,2.545,25.913,11.586c.475,10.287,8.925,17.762,12.313,20.361,3.983-5,16.942-23.2,9.143-39.62a1.84,1.84,0,0,1,.791-2.408,1.948,1.948,0,0,1,.948-.247A1.937,1.937,0,0,1,50.7-9.52M-7.557,31.787a32.98,32.98,0,0,1-4-46.877c.154-.181.314-.362.473-.541a35.24,35.24,0,0,1,48.756-3.434q-1.536,1.2-2.934,2.42a31.11,31.11,0,0,0-7.946-4.671,27.019,27.019,0,0,1,3.674,4.683q.768,1.234,1.445,2.564A56.09,56.09,0,0,0,27.4-9.233,49.163,49.163,0,0,0,16.971-10.71V4.519h3.106A24.382,24.382,0,0,0,19.444,8.2H16.98V23.428a51.265,51.265,0,0,0,5.477-.485,33.128,33.128,0,0,0,2.057,3.4,54.049,54.049,0,0,1-7.541.772v8.389c3.429-.632,6.674-2.951,9.369-6.721.85,1.039,1.712,1.989,2.55,2.846A24.363,24.363,0,0,1,26.8,34.038,31.275,31.275,0,0,0,29.874,32.6c.529.5,1.034.965,1.519,1.386L31.3,34v2.043A35.308,35.308,0,0,1,15.07,39.98,35.114,35.114,0,0,1-7.557,31.787M2.909,27.435C5.765,32,9.351,34.8,13.172,35.5V27.112a52.672,52.672,0,0,1-11.353-1.59c.345.656.708,1.3,1.09,1.91Zm.441,6.606A26.915,26.915,0,0,1-.326,29.358a35.019,35.019,0,0,1-2.719-5.376,37.646,37.646,0,0,1-5.528-2.643,27.386,27.386,0,0,1-4.81-3.574A30.551,30.551,0,0,0,3.355,34.038ZM-.1,21.111a47.131,47.131,0,0,0,13.275,2.317V8.2H-2.482A43.62,43.62,0,0,0-.1,21.111Zm-6.5-2.929c.632.375,1.293.73,1.967,1.063A48.681,48.681,0,0,1-6.271,8.2H-14.9C-14.177,11.916-11.3,15.4-6.6,18.182Zm0-23.646h0C-11.3-2.689-14.177.806-14.892,4.527h8.619A48.84,48.84,0,0,1-4.64-6.522c-.674.331-1.332.683-1.964,1.056ZM-.1-8.391A43.636,43.636,0,0,0-2.479,4.519H13.172V-10.71A47.254,47.254,0,0,0-.1-8.4ZM-13.391-5.043A27.518,27.518,0,0,1-8.573-8.614a36.451,36.451,0,0,1,5.528-2.643A35.253,35.253,0,0,1-.329-16.635a26.915,26.915,0,0,1,3.676-4.683A30.563,30.563,0,0,0-13.391-5.043M16.963-14.4A52.783,52.783,0,0,1,28.311-12.8q-.514-.992-1.087-1.913c-2.856-4.57-6.447-7.365-10.263-8.063ZM2.912-14.717c-.385.615-.745,1.249-1.092,1.913A52.7,52.7,0,0,1,13.174-14.4v-8.386c-3.823.7-7.409,3.5-10.265,8.066Z" transform="translate(19.505 29.73)" fill="#fff"/>
</svg>
