<?xml version="1.0" encoding="UTF-8"?>
<svg id="Layer_2" data-name="Layer 2" xmlns="http://www.w3.org/2000/svg" viewBox="0 0 52.47 52.84">
  <defs>
    <style>
      .cls-1 {
        fill: #fff;
      }
    </style>
  </defs>
  <g id="Layer_1-2" data-name="Layer 1">
    <path class="cls-1" d="M52.35,38.48c-.25,8.04-6.11,13.93-14.11,14.14-6.86,.18-13.72,.28-20.58,.19-2.66-.04-5.41-.36-7.94-1.13-5.34-1.64-8.29-5.62-9.24-11.05C.12,38.55,0,36.42,0,34.32c0-6.7,.04-13.39,.22-20.09C.44,6.36,6.38,.41,14.21,.22,21.06,.05,27.93-.04,34.78,.02c2.51,.02,5.1,.27,7.5,.95,5.66,1.59,9.03,5.58,9.77,11.37,.59,4.64,.42,22.13,.3,26.15ZM4.57,26.33c.13,4.23,.17,8.5,.43,12.76,.28,4.43,3.2,7.75,7.52,8.49,2.37,.4,4.81,.5,7.21,.5,6.34,0,12.69-.05,19.03-.27,2.78-.1,5.19-1.31,6.92-3.65,1.57-2.11,2.05-4.57,2.08-7.09,.08-7.1,.08-14.2,0-21.3-.03-2.44-.47-4.84-1.94-6.9-2.14-3.02-5.3-4.01-8.73-4.03-7.73-.05-15.47-.03-23.2,.2-5.02,.15-8.61,3.83-8.92,8.83-.26,4.14-.29,8.28-.43,12.46Zm36.79,2.4v11.24h-6.48v-10.48c0-2.63-.94-4.43-3.28-4.43-1.79,0-2.86,1.21-3.33,2.38-.17,.42-.22,1-.22,1.59v10.95h-6.48s.09-17.76,0-19.6h6.48v2.78s-.03,.04-.04,.06h.04v-.06c.86-1.33,2.4-3.24,5.84-3.24,4.27,0,7.46,2.8,7.46,8.82h0ZM14.79,10.92c-2.22,0-3.67,1.46-3.67,3.39s1.41,3.39,3.58,3.39h.04c2.26,0,3.67-1.51,3.67-3.39-.04-1.92-1.41-3.39-3.62-3.39h0Zm-3.28,29.05h6.48V20.37h-6.48v19.6Z"/>
  </g>
</svg>