<svg xmlns="http://www.w3.org/2000/svg" width="96.473" height="75.691" viewBox="0 0 96.473 75.691">
  <g id="icone_descaracterizacao" transform="translate(-1328.122 -4866.056)">
    <path id="icone_descaracterizacao-2" data-name="icone_descaracterizacao" d="M55.192,0H-34.883a3.208,3.208,0,0,0-3.2,3.2V62.293a3.21,3.21,0,0,0,3.2,3.2h37.2v4.313H-10.434v5.883H30.743V69.808H18V65.494h37.2a3.21,3.21,0,0,0,3.2-3.2V3.2a3.208,3.208,0,0,0-3.2-3.2M13.478,60.512a3.322,3.322,0,1,1-3.324-3.321,3.325,3.325,0,0,1,3.324,3.321M-24.06,54.845H-34.354V3.728H54.663V54.845H-24.06Z" transform="translate(1366.204 4866.056)" fill="#fff"/>
    <path id="Caminho_24" data-name="Caminho 24" d="M10.977,21.968a18.563,18.563,0,0,1,0-37.126A18.585,18.585,0,0,1,29.538,3.408,18.58,18.58,0,0,1,10.977,21.968m0-33.972A15.409,15.409,0,1,0,26.386,3.408,15.42,15.42,0,0,0,10.977-12" transform="translate(1373.052 4889.993)" fill="#fff"/>
    <path id="Caminho_25" data-name="Caminho 25" d="M5.187,8.764A4.45,4.45,0,0,1,2.01,7.373l-5.589-5.78L-1.311-.6l5.587,5.78c.456.47,1.043.512,1.227.333s.164-.767-.294-1.239L-2.462-3.887l2.3-2.16L7.492,2.1a4.04,4.04,0,0,1,.2,5.68,3.564,3.564,0,0,1-2.508.985" transform="translate(1398.979 4909.006)" fill="#fff"/>
    <path id="Caminho_27" data-name="Caminho 27" d="M36.952-17.7H33.8V-34.638h3.155Z" transform="translate(1355.911 4919.657)" fill="#fff"/>
    <path id="Caminho_28" data-name="Caminho 28" d="M35.185-21.239H32.03v-13.4h3.155Z" transform="translate(1353.35 4919.656)" fill="#fff"/>
    <path id="Caminho_29" data-name="Caminho 29" d="M33.418-21.239H30.263v-13.4h3.155Z" transform="translate(1350.789 4919.656)" fill="#fff"/>
    <path id="Caminho_30" data-name="Caminho 30" d="M31.651-21.239H28.5v-13.4h3.155Z" transform="translate(1348.229 4919.656)" fill="#fff"/>
    <path id="Caminho_31" data-name="Caminho 31" d="M29.884-21.239H26.729v-13.4h3.155Z" transform="translate(1345.668 4919.656)" fill="#fff"/>
    <path id="Caminho_32" data-name="Caminho 32" d="M25.1-25.694H21.942v-8.945H25.1Z" transform="translate(1338.73 4919.656)" fill="#fff"/>
    <path id="Caminho_33" data-name="Caminho 33" d="M23.359-25.694H20.2v-8.945h3.155Z" transform="translate(1336.211 4919.656)" fill="#fff"/>
    <path id="Caminho_34" data-name="Caminho 34" d="M21.794-22.473H18.639V-34.639h3.155Z" transform="translate(1333.943 4919.656)" fill="#fff"/>
    <path id="Caminho_35" data-name="Caminho 35" d="M11.015,16.635H-6.023A1.576,1.576,0,0,1-7.6,15.058V-9.9a1.578,1.578,0,0,1,1.577-1.577H14.3v3.155H-4.445v21.8h15.46Z" transform="translate(1354.047 4888.085)" fill="#fff"/>
  </g>
</svg>
