<?xml version="1.0" encoding="UTF-8"?>
<svg id="Layer_2" data-name="Layer 2" xmlns="http://www.w3.org/2000/svg" viewBox="0 0 52.47 52.57">
  <defs>
    <style>
      .cls-1 {
        fill: #fff;
      }
    </style>
  </defs>
  <g id="Layer_1-2" data-name="Layer 1">
    <path class="cls-1" d="M52.35,38.28c-.25,8-6.11,13.86-14.11,14.07-6.86,.18-13.72,.28-20.58,.19-2.66-.03-5.41-.35-7.94-1.13-5.34-1.63-8.29-5.59-9.24-11C.12,38.36,0,36.23,0,34.14c0-6.66,.04-13.32,.22-19.98C.44,6.33,6.38,.41,14.21,.22,21.06,.05,27.93-.04,34.78,.02c2.51,.02,5.1,.27,7.5,.94,5.66,1.58,9.03,5.56,9.77,11.31,.59,4.62,.42,22.01,.3,26.01ZM4.57,26.19c.13,4.21,.17,8.46,.43,12.69,.28,4.41,3.2,7.71,7.52,8.44,2.37,.4,4.81,.5,7.21,.49,6.34,0,12.69-.05,19.03-.27,2.78-.1,5.19-1.31,6.92-3.63,1.57-2.1,2.05-4.55,2.08-7.05,.08-7.06,.08-14.13,0-21.19-.03-2.42-.47-4.81-1.94-6.87-2.14-3-5.3-3.99-8.73-4.01-7.73-.05-15.47-.03-23.2,.2-5.02,.15-8.61,3.81-8.92,8.79-.26,4.11-.29,8.24-.43,12.4Zm8.24,.06c-.02-7.47,5.9-13.43,13.37-13.46,7.6-.03,13.57,5.89,13.58,13.5,.02,7.45-5.92,13.43-13.38,13.47-7.61,.04-13.55-5.87-13.57-13.5Zm22.25-.41c-.22-4.99-4.51-8.71-9.24-8.33-5.05,.4-8.75,4.56-8.34,9.14,.47,5.1,4.56,8.85,9.2,8.43,5.07-.45,8.82-4.6,8.37-9.24Zm8.47-13.59c.03-1.68-1.48-3.21-3.17-3.2-1.73,0-3.16,1.48-3.13,3.22,.03,1.74,1.39,3.05,3.14,3.04,1.71,0,3.12-1.38,3.15-3.06Z"/>
  </g>
</svg>