<svg xmlns="http://www.w3.org/2000/svg" xmlns:xlink="http://www.w3.org/1999/xlink" width="147.462" height="203.316" viewBox="0 0 147.462 203.316">
  <defs>
    <clipPath id="clip-path">
      <rect id="Retângulo_12" data-name="Retângulo 12" width="147.462" height="203.316" fill="none"/>
    </clipPath>
  </defs>
  <g id="logo_pacto_global" transform="translate(0 0)">
    <g id="Grupo_63" data-name="Grupo 63" transform="translate(0 0)" clip-path="url(#clip-path)">
      <path id="Caminho_81" data-name="Caminho 81" d="M137.529,66.631a4.635,4.635,0,0,1,.743-.633c1.789-.957,1.8-.948,1.308-3.073-2.88.22-5.787.431-8.69.692-.232.021-.5.369-.63.627a7.18,7.18,0,0,0-.4,1.165l-.327-.018c-.161-1.866-.318-3.733-.484-5.68.232.059.431.068.443.119.38,1.739,1.629,1.617,2.969,1.477,2.3-.241,4.616-.4,6.845-.58.942-2.422-1.028-2.657-2.52-3.245l.152-.437c1-.074,2.009-.146,3.24-.238.256,3.332.5,6.533.755,9.894l-3.243.259c-.054-.11-.1-.22-.158-.33m-1.3-11.805a5.778,5.778,0,0,1,.8-1.144c1.531-1.207,1.584-1.385.725-3.162-1.106-2.288-3.186-3.07-5.769-2.167-2.693.939-3.914,2.835-3.4,5.154.214.969.648,1.525,1.7,1.542a10.532,10.532,0,0,1,1.694.339c-2.146,1.459-2.939,1.266-3.864-.758-.987-2.167-1.554-4.434.187-6.44a6.114,6.114,0,0,1,6.747-2.1,5.686,5.686,0,0,1,2.7,2.042,8.641,8.641,0,0,1,1.323,3.442c.473,2.684.389,2.7-2.832,3.248m-7.656-11.05c-.99,1.067-2.366,1.9-2.179,3.724-.11-.006-.22-.015-.327-.021q-.9-2.158-1.8-4.315l.312-.187c.386.241.77.481,1.3.811.41-1.192,2.612-1.43,1.834-3.1-1.45-3.091-.4-2.532-4.562-2.125-.062.455-.128.927-.193,1.4-.1.036-.193.071-.288.1-.621-1.067-1.245-2.131-2.009-3.445,3.284,1.563,6.372.336,9.43.4.945.021,1.9-.1,2.844-.071a4.092,4.092,0,0,1,1.109.36,3.291,3.291,0,0,1-.419,1.085c-1.661,1.81-3.376,3.572-5.05,5.373m-1.147-5.668c.484.993.841,1.73,1.227,2.52.93-.93,1.73-1.73,2.74-2.737l-3.968.217M124.6,33.136a26.414,26.414,0,0,1-2.841-2.514c-.829,1.192-3.263,1.236-2.333,3.706l-.354.089c-.987-1.272-1.976-2.547-2.957-3.816a2.293,2.293,0,0,1,.253-.247c1.174.808,2,.178,2.892-.583,1.281-1.094,2.633-2.1,3.971-3.13.957-.737,2.2-1.3,1.5-3.037,1.724,1.991,3.611,3.676,4.428,6.081a2.74,2.74,0,0,1-1.043,3.231,2.915,2.915,0,0,1-3.516.22m1.9-6.143-3.84,3.043c.675,1.109,1.471,2.012,2.639,1.626a4.457,4.457,0,0,0,2.312-1.78c.624-1.064-.166-2.015-1.112-2.889m-7.689-3.6c-.9.865-1.757,1.786-2.633,2.681-1.314,1.343-1.314,1.343-1,2.969-.957-1.085-1.973-2.235-2.583-2.927.969.517,1.6-.924,2.488-1.816a17.628,17.628,0,0,0,2.645-3.257l-8.185,3.65c.871-3.156,1.644-5.944,2.413-8.735-.083-.051-.166-.1-.253-.152-1.323,1.652-2.7,3.263-3.917,5-.25.36.128,1.162.267,2.1-1.281-.933-2.33-1.694-3.382-2.461.128-.163.2-.285.217-.276,1.323.574,2.018-.229,2.734-1.159,1.025-1.334,2.134-2.607,3.2-3.911.758-.927,2.012-1.718.559-3.29.175-.042.348-.086.523-.128.9.666,1.837,1.293,2.678,2.03.184.16.1.734.009,1.079-.577,2.122-1.192,4.232-1.789,6.351-.065.232-.083.479-.163.939,2.25-1.019,4.345-1.9,6.372-2.916a1.613,1.613,0,0,1,2.315.413,14.926,14.926,0,0,1,1.59,1.632c-2.288-.645-3,1.132-4.1,2.184m-17.422-5.463a5.365,5.365,0,0,1-5.57-5.272c.024-3.421,2.657-6.319,5.739-6.316,3.3,0,5.926,2.321,5.92,5.228a6.475,6.475,0,0,1-6.09,6.36m2.06-10.42a2.943,2.943,0,0,0-3.388.924,8.189,8.189,0,0,0-2.134,5.029,2.964,2.964,0,0,0,1.507,3.073,2.8,2.8,0,0,0,3.234-.583,7.445,7.445,0,0,0,2.812-4.9c.021-1.976-.657-3.014-2.03-3.543M94.06,4.96c.065-1.061-.464-1.409-1.391-1.62-2.755-.627-4.714.493-5.543,3.254-.865,2.874.122,5.136,2.571,6.063.993.377,1.712.3,2.262-.7a5.436,5.436,0,0,1,.96-1c.131.074.265.149.4.226-.238.832-.479,1.667-.776,2.716a33.688,33.688,0,0,1-3.424-.422c-2.1-.476-3.831-1.548-4.307-3.789a6.61,6.61,0,0,1,1.759-6.44,5.111,5.111,0,0,1,4.217-1.2,7.737,7.737,0,0,1,2.393.5c2.8,1.192,2.714.672,1.278,3.84a4.638,4.638,0,0,1-.4-1.421M85.824,31.849a22.286,22.286,0,0,1-6.117,2.28,33.129,33.129,0,0,1-16.132-.481,37.382,37.382,0,0,1-5.2-2.339c1.756,2.7,4.669,3.572,7.6,4.6-.752,1-1.456,1.917-2.131,2.85a69.28,69.28,0,0,0-7.793,13.689c-.467,1.1-.942,1.349-2.116.862a38.219,38.219,0,0,1-9.163-5.133c.285.345.553.707.856,1.037A23.846,23.846,0,0,0,53.6,54.87c.808.363,1.1.737.746,1.673a67.9,67.9,0,0,0-4.562,19.693,5.931,5.931,0,0,1-.282,1.019c-2.568-1.242-5.053-2.443-7.54-3.644l-.092.077c.526.422,1.04.862,1.581,1.263.591.437,1.189.868,1.813,1.251a35.4,35.4,0,0,0,3.139,1.8,1.9,1.9,0,0,1,1.207,2.033,46.46,46.46,0,0,0,1.278,13.092,4.319,4.319,0,0,0,.169.431V79.393c1.551.538,2.88,1.008,4.211,1.456a56.223,56.223,0,0,0,15.217,2.794c1.106.053,1.67.4,1.682,1.59.059,5.053.172,10.1.247,15.155.027,1.884-.042,1.991-1.985,1.837-3.48-.276-6.952-.645-10.426-.972-.169-.015-.339,0-.571.309,1.436.339,2.859.77,4.312,1q3.767.6,7.564.987c.927.092,1.334.434,1.329,1.337-.006,1.587,0,3.174,0,4.862a26.54,26.54,0,0,1-9.52-1.168C45.458,103.2,34.7,91.332,31.406,73.282,29.15,60.921,32.868,49.7,40.474,39.826A39.428,39.428,0,0,1,67.341,24.365a38.153,38.153,0,0,1,15.285.728,10.362,10.362,0,0,1,3.364,1.563c2.069,1.519,2.06,3.95-.166,5.192M71.19,11.178a2.019,2.019,0,0,1-.458-.113c1.349-.571,1.346-1.629,1.352-2.731.009-2.286.14-4.577.039-6.86C72.1,1,71.306.553,70.774,0h4.9c-2.006.669-1.361,2.345-1.385,3.733-.039,2.152-.012,4.3-.012,6.31,2.2,1.323,3.046-.464,4.051-1.881l.339.285c-.1.9-.19,1.792-.291,2.737-2.455,0-4.821,0-7.186-.006m-6.384.639c-.042-.092-.086-.187-.128-.282.321-.3.645-.609,1.115-1.049-.9-.85-.585-2.883-2.413-2.758-2.8.187-3.13.752-3.1,3.846.4.172.817.351,1.233.532.012.11.024.22.039.33-1.189.288-2.375.577-3.641.886C60.19,9.7,60.06,5.54,61.3,1.78a6.22,6.22,0,0,1,.58-1.043,4.286,4.286,0,0,1,.972.829c1.346,2.158,2.621,4.363,3.971,6.521.7,1.12,1.058,2.612,2.889,2.675-.062.146-.122.288-.181.431l-4.72.624M61.754,3.275c-.321,1.548-.559,2.693-.835,4.018,1.013-.169,1.8-.3,2.838-.476-.675-1.195-1.245-2.2-2-3.543M48.974,16.95a1.663,1.663,0,0,1-.158-.354c1.1-.969.692-1.968.172-3.061C48.263,12.019,47.666,10.444,47,8.9c-.476-1.1-.648-2.55-2.693-1.965.059-.187.116-.374.175-.565,1.988-.788,3.956-1.647,5.977-2.348a2.673,2.673,0,0,1,3.2,1.011c.648,1.016.484,2.125-.487,3.308-.125.155-.256.3-.493.577.383.018.585.03.785.033,1.56.021,2.437.577,2.812,1.786a2.762,2.762,0,0,1-1.361,3.436c-1.929,1.025-3.956,1.861-5.941,2.779M51.756,6.342c-.678-1.409-1.774-1.6-3.6-.481.58,1.346,1.126,2.624,1.676,3.9,2.039-.829,2.63-1.962,1.926-3.418m1.486,4.006c-.889-.838-2-.41-3.1.253.594,1.391,1.159,2.716,1.756,4.113,1.132-.419,2.3-.785,2.327-2.027a3.472,3.472,0,0,0-.981-2.339M40.063,21.61c-2.936,0-5.8-3.153-5.8-6.381A6.119,6.119,0,0,1,40.09,9.543c2.862-.062,5.531,2.993,5.57,6.375a5.83,5.83,0,0,1-5.6,5.692m.374-10.26a2.819,2.819,0,0,0-3.287.184,2.757,2.757,0,0,0-1.242,3.043,7.572,7.572,0,0,0,4.11,5.222c2.045.975,3.9-.288,3.9-2.916a7.576,7.576,0,0,0-3.483-5.534M35.427,22.127l.4-.16c.606.69,1.21,1.382,1.67,1.911-1.89,1.932-3.73,3.807-5.57,5.686,1.04-1.9-.746-2.544-1.664-3.561s-1.914-1.991-2.9-2.963c-.853-.844-1.522-2.211-2.829-1.135C25.512,20.8,26.591,19.586,28,18c-1.138,2.494.8,3.219,1.8,4.351,1.281,1.45,2.764,2.725,4.312,4.22.594-.645,1.477-1.216,1.724-1.988.223-.7-.247-1.629-.413-2.455M24.1,35.139c1.929.386,3.415-.511,4.446-2.532-1.138-.835-2.036-2.226-3.727-.731-.045-.131-.089-.262-.134-.4q1.422-1.953,2.841-3.9c.128-.012.256-.021.38-.033-.764,2.235,1.195,2.577,2.247,3.617a9.92,9.92,0,0,1-3.3,5.118c-1.881,1.388-4.185,1.272-6.375-.276-2.3-1.623-3.21-3.73-2.589-5.986a10.684,10.684,0,0,1,3.584-4.966A.927.927,0,0,1,22.353,25,18.552,18.552,0,0,1,24,26.383c-.3.143-.627.449-.892.4-.945-.163-1.858-.731-2.615.47-.841,1.32-1.587,2.633-.93,4.22A5.941,5.941,0,0,0,24.1,35.139M21.432,45.871c-3.168,1.091-6.351,2.14-9.531,3.2.006.1.012.2.021.3,2.125.7,4.229,1.48,6.387,2.051.529.14,1.239-.4,2.083-.713-.428,1.266-.82,2.437-1.216,3.605l-.374.2c.152-2.134-1.418-2.146-2.651-2.556-1.391-.461-2.8-.871-4.182-1.358-1.21-.428-2.41-1.067-3.308.791-.172-2.2.71-3.7,2.309-4.256,2.393-.835,4.788-1.655,7.552-2.609-2.122-.767-3.9-1.495-5.742-2.006-.41-.116-1.031.526-1.908,1.016.544-1.519.99-2.761,1.436-4l.262.08c.175.568.2,1.3.574,1.661a5.087,5.087,0,0,0,1.777.719L22.915,44.9a8.24,8.24,0,0,1-1.483.966M11.374,56.217c1.239.175,2.485.3,3.727.464a3.579,3.579,0,0,1,3.37,3.62,9.764,9.764,0,0,1-.336,2.933,2.948,2.948,0,0,1-3.192,2.291c-1.641-.045-3.275-.22-4.913-.318-1.248-.071-2.711-.7-3.159,1.519l-.342-.377q.178-2.492.354-4.981l.336-.309C7.6,63.4,9.309,62.8,10.649,62.975q2.055.267,4.125.4c1.759.116,2.618-.6,2.841-2.28.223-1.706-.5-2.826-2.181-3.073A60.823,60.823,0,0,0,9,57.361c-.52-.024-1.07.728-1.831,1.29.172-1.5.327-2.883.484-4.265.11-.1.22-.2.327-.3.267,2.4,2.006,1.932,3.394,2.128m1.141,24.974c1.709,3.457,3.382,7.142,5.326,10.679a32.849,32.849,0,0,1,3.483,9.811c.184.966.431,1.92.66,2.919C13.57,98.97,9.861,89.557,12.515,81.191m7.439,24.945a31.948,31.948,0,0,1,8.057,5.8,7.6,7.6,0,0,0,1.008.808,3.351,3.351,0,0,0,.413.244c-4.315-4.277-5.026-9.817-5.715-15.386-.262-2.116-.734-4.205-1.123-6.387a37.575,37.575,0,0,1,5.718,11.416c.526,1.911,1.064,3.819,1.664,5.706a20.182,20.182,0,0,0,4.509,8.117c-3.156-.707-6.188-1.337-9.193-2.075-4.91-1.2-8.194-4.607-11.092-8.456a19.853,19.853,0,0,1-3.887-8.782,17.292,17.292,0,0,0,6.1,6.845c1.153.758,2.33,1.486,3.537,2.152M31.941,118.96c4.972.389,9.936.865,14.964,1.409-.476-.152-.942-.342-1.424-.449a12.4,12.4,0,0,1-8.616-6.259c-1.507-2.7-3.1-5.359-4.464-8.265a9.305,9.305,0,0,1,1.1.692c2.687,2.232,5.48,4.357,8.01,6.756,4.226,4.009,8.818,7.213,14.842,7.846-.021.1-.039.208-.059.309-.948.116-1.914.149-2.841.357-3.7.823-7.368,1.837-11.095,2.529-7.558,1.409-14.64.235-20.793-4.636a53.343,53.343,0,0,1-4.708-4.743l.312-.348c4.342,3.4,9.454,4.384,14.768,4.8m40.2-58.071q0,4.6,0,9.193h-.048c0,3.106.009,6.212,0,9.317,0,1.563-.193,1.875-1.81,1.756-3.516-.262-7.044-.547-10.524-1.1-2.535-.4-5-1.26-7.5-1.878a1.173,1.173,0,0,1-1.022-1.48A81.009,81.009,0,0,1,55.78,57.01c.3-.788.651-.921,1.447-.654a48.481,48.481,0,0,0,13.027,2.479c1.667.08,1.884.357,1.887,2.054M66.506,37.023a1.56,1.56,0,0,1,1.843-.692,20.172,20.172,0,0,0,3.457.407c.832.033,1.135.282,1.1,1.144-.229,5.647-.416,11.294-.624,16.941-.056,1.522-.279,1.688-2.063,1.67-.021.1-.039.208-.056.312q-5.969-1.034-11.945-2.077c-1.011-.178-1.343-.594-.865-1.691a80.631,80.631,0,0,1,9.154-16.013M45.892,126.34c3.18-1.088,6.232-2.538,9.4-3.673a29.823,29.823,0,0,1,16.554-1.3c1.685.357,3.584-.137,5.365-.4,5.748-.841,11.148.473,16.441,2.52,2.856,1.1,5.641,2.443,8.571,3.278a20.529,20.529,0,0,0,14.887-1.162c.181-.086.374-.149.562-.223-4.58,4.452-9.953,6.764-16.373,6.322-4.806-.333-8.973-2.309-12.923-4.9-1.765-1.159-3.534-2.33-5.388-3.338a8.635,8.635,0,0,0-6.631-.666,58.615,58.615,0,0,1,16.29,10.931c-1.037.8-2.006,1.548-2.907,2.247A80.063,80.063,0,0,0,83.363,130c-2.838-2.158-5.962-3.938-8.964-5.882a2,2,0,0,0-2.173,0A46.25,46.25,0,0,0,57.6,135.5c-.14.16-.285.312-.532.58-1-.761-1.988-1.5-3.073-2.321a60.214,60.214,0,0,1,15.93-10.916A5.345,5.345,0,0,0,66,122.666a35.962,35.962,0,0,0-5.977,2.987c-3.935,2.541-7.852,5.023-12.6,5.8-6.86,1.12-12.783-.88-18-5.3a14.577,14.577,0,0,1-1-1.067,21.607,21.607,0,0,0,17.458,1.254m59.147-2.452c-3.727-.707-7.4-1.7-11.1-2.52a25.828,25.828,0,0,1-2.806-.556c1.129-.288,2.259-.565,3.382-.868a20.089,20.089,0,0,0,8.152-4.33c3.513-3.064,7.062-6.087,10.613-9.106a5.221,5.221,0,0,1,2.089-1.091c-2.1,3.448-4.081,6.978-6.339,10.316-1.584,2.345-4.149,3.43-6.842,4.128-.565.146-1.132.285-1.7.428l.071.3c1.7-.3,3.4-.7,5.112-.868,3.477-.336,6.99-.374,10.441-.856a62.378,62.378,0,0,0,9.309-2.048,27.517,27.517,0,0,0,4.877-2.547,19.2,19.2,0,0,1-6.134,6.188c-5.891,3.825-12.346,4.717-19.128,3.43m7.469-41.282c.184-2.571.419-4.824.484-7.082.059-2.06-.08-4.125-.092-6.188a5.228,5.228,0,0,1,.217-2.009c.99-2.3,2.089-4.562,3.121-6.776.93,7.534.119,14.887-3.73,22.056M106.644,39.05a46.387,46.387,0,0,1,3.216,4.238c1.308,2.164,2.4,4.458,3.54,6.72,1.721,3.421,1.275,6.827-.172,10.2-.366.853-.788,1.682-1.346,2.865a55.02,55.02,0,0,0-6.758-15.758,2.21,2.21,0,0,1-.267-1.548c.532-2.226,1.168-4.425,1.789-6.717m1.982,25.75a3.294,3.294,0,0,1-1.019,3.858c-2.458,1.893-4.88,3.84-7.406,5.641-1.459,1.04-1.789.794-2.036-.987a76.263,76.263,0,0,0-4.027-16.135c-.734-1.973-.663-1.887,1.123-2.993,2.009-1.242,3.9-2.672,5.843-4.024.342-.241.66-.517,1.376-1.079,1.531,3.448,3.02,6.589,4.315,9.808a58.159,58.159,0,0,1,1.831,5.911M88.386,34.283A44.734,44.734,0,0,1,99.647,45.214a1.546,1.546,0,0,1-.267,2.461c-1.956,1.4-3.941,2.764-5.917,4.137-.847.585-1.355.339-1.78-.594A67.68,67.68,0,0,0,83.9,38.146c-.52-.681-1.052-1.355-1.614-2.08,1.676-.71,3.231-1.421,4.827-2.015a1.627,1.627,0,0,1,1.272.232m-7.579,2.675A80.247,80.247,0,0,1,89.126,52.38c.354.844.089,1.343-.823,1.638a44.941,44.941,0,0,1-12.379,2.348c-.737.024-1.427,0-1.45-1-.14-6.114-.276-12.23-.419-18.424,2.063-.193,4.024-.4,5.989-.532.244-.015.588.3.764.544M89.489,106.8a41.724,41.724,0,0,1-15.1,2.978c-.163,0-.324-.045-1.011-.092A32.993,32.993,0,0,0,74.1,104.4a1.147,1.147,0,0,1,.832-.731,64.693,64.693,0,0,0,17.633-2.951,6.182,6.182,0,0,1,.918-.045c-1.2,2.08-2.256,3.92-3.344,5.739a1.3,1.3,0,0,1-.648.386m6.283-24.775a60.6,60.6,0,0,1-1.01,13.648A3.328,3.328,0,0,1,92.41,98.4a58.522,58.522,0,0,1-16.727,3.629,7.507,7.507,0,0,1-.776.018,5.764,5.764,0,0,1-.678-.128c0-.609-.009-1.236,0-1.863q.129-7.186.265-14.37c.033-1.843.175-1.965,1.982-2.018a58.3,58.3,0,0,0,17.241-3.061c1.8-.612,2.024-.437,2.051,1.418M76.022,58.975A50.039,50.039,0,0,0,89.715,56.55c.838-.288,1.123.244,1.284.85,1.165,4.357,2.336,8.717,3.436,13.095.357,1.415.508,2.88.74,4.324.241,1.5-.062,2.1-1.421,2.621A58.482,58.482,0,0,1,75.7,81.051c-1.126.056-1.132-.642-1.132-1.418V70.046h-.021c0-3.15.021-6.3-.009-9.454-.012-1.064.354-1.554,1.48-1.617M97.609,92.149c.443-3.932.761-7.876,1.067-11.823a2.427,2.427,0,0,1,1.106-2.164c3.352-2.089,6.678-4.223,10.117-6.408a14.448,14.448,0,0,1,.241,2.19c-.071,3.525-.036,7.065-.4,10.563a7.936,7.936,0,0,1-1.9,4c-3.008,3.54-6.987,5.807-11.33,8.069a35.287,35.287,0,0,0,1.094-4.428m-2.767,8.625A4.859,4.859,0,0,1,96.5,99.219c1.647-.936,3.4-1.679,5.041-2.624,1.6-.921,3.115-2,4.622-2.975-1.186,2.794-9.731,10.126-13.993,11.885.933-1.676,1.733-3.248,2.672-4.732m7.082-65.932c1.869,2.143,1.929,6.6.175,8.515A50.056,50.056,0,0,0,89.108,32.5,4.941,4.941,0,0,0,90.1,27.3c4.506,1.959,8.69,3.95,11.823,7.537m28.119,56c1.813-3.1,3.2-6.446,4.809-9.739a26.581,26.581,0,0,1-.606,13.238c-1.486,4.639-5.6,6.952-8.842,10.429a40.7,40.7,0,0,1,4.639-13.927m-9.172,23.8c-2.55.752-5.2,1.186-7.95,1.789,4-4.286,4.88-9.829,6.512-15.054a37.434,37.434,0,0,1,5.222-10.013c-.66,4.152-1.257,8.277-1.985,12.382a17.079,17.079,0,0,1-4.847,8.99c.077.074.158.146.238.22a13.381,13.381,0,0,0,1.367-1.106,30.546,30.546,0,0,1,7.626-5.522c4-2.205,7.814-4.63,9.793-9.074l.36.205c-.594,1.587-1.067,3.234-1.807,4.749a24.79,24.79,0,0,1-8.491,9.924,22.206,22.206,0,0,1-6.036,2.508m26.567,59.3a.523.523,0,0,1-.345.374,14.044,14.044,0,0,1-3.085.166c-1.537-.205-2.271-1.364-2.277-3.246-.012-4.559,0-9.115,0-13.672v-1.629h3.136V169.99c0,1.843.14,1.976,1.959,1.938.163,0,.33,0,.633,0,0,.7.018,1.358-.018,2.015m-12.1-.636a5.09,5.09,0,0,1-4.384,1.468c-3.088-.125-4.993-2.82-3.843-5.543.814-1.932,2.5-2.562,4.434-2.654,1.2-.056,2.407-.009,3.6-.009.4-1.807-.152-2.892-1.563-3.1-1.581-.235-3.323.03-3.287,1.635h-2.672a2.948,2.948,0,0,1,1.421-3.21,7.577,7.577,0,0,1,5.053-.862,7.815,7.815,0,0,1,1.8.431,3.555,3.555,0,0,1,2.514,3.605c.018,2.419.018,4.839.042,7.258.006.672.068,1.343.107,2.074h-3.029c-.053-.318-.1-.609-.19-1.091m-.134-4.518c-1.421.08-2.794.1-4.152.253a1.361,1.361,0,0,0-1.168,1.453,1.548,1.548,0,0,0,1.04,1.578c2.52,1.052,4.541-.407,4.28-3.284m-13.71,5.605c-1.893.609-3.721.574-5.261-.942-.074-.071-.172-.125-.377-.273-.024.473-.039.805-.059,1.2h-2.9V155.959h3.046v6.577a1.812,1.812,0,0,0,.345-.187,4.966,4.966,0,0,1,5.781-.951,4.62,4.62,0,0,1,2.853,4.737,36.548,36.548,0,0,1-.131,4.461,4.462,4.462,0,0,1-3.3,3.8m.259-7.986a2.636,2.636,0,0,0-2.743-2.776A2.76,2.76,0,0,0,116,166.278a32.8,32.8,0,0,0,0,3.376A2.674,2.674,0,0,0,118.9,172.1a2.568,2.568,0,0,0,2.829-2.4c.045-.618.006-1.239.006-1.858h.018c0-.478.006-.957,0-1.436M109.839,170a5.523,5.523,0,0,1-5.537,4.714,9.428,9.428,0,0,1-3.058-.434,4.708,4.708,0,0,1-3.48-4.892v-1.433h.068a13.883,13.883,0,0,1,.021-2.437,5.885,5.885,0,0,1,6.952-4.506c3.043.481,5.311,2.657,5.094,5.956-.065,1.008.062,2.033-.059,3.032m-3.13-3.828a2.651,2.651,0,0,0-2.9-2.538,2.563,2.563,0,0,0-2.85,2.47c-.054,1.18-.054,2.366,0,3.546a2.642,2.642,0,0,0,2.892,2.458,2.59,2.59,0,0,0,2.844-2.39c.048-.615.006-1.239.006-1.858h.012c0-.562.021-1.126,0-1.688M95.9,174.321a14.811,14.811,0,0,1-3.085.163c-1.421-.175-2.229-1.174-2.247-2.826-.056-5.174-.015-10.352-.009-15.526,0-.051.045-.1.089-.193h3.026v14.224c0,1.6.208,1.807,1.789,1.777.22-.006.443,0,.8,0,0,.687.021,1.349-.018,2.009a.523.523,0,0,1-.345.374m-8.988-3.528c-.895,2.529-2.948,3.617-5.436,3.908a8.219,8.219,0,0,1-7.038-2.072,5.418,5.418,0,0,1-1.673-4.012c-.018-2-.006-4-.006-5.995a6.657,6.657,0,0,1,6.533-7.053,9.216,9.216,0,0,1,4.85.808,5.282,5.282,0,0,1,3.043,5.638H84.169a.627.627,0,0,1-.1-.211,3.028,3.028,0,0,0-2.387-3,4.518,4.518,0,0,0-4.625,1.028,3.646,3.646,0,0,0-.933,2.719c-.015,1.658-.006,3.32-.006,4.981,0,2.907,2.024,4.6,4.931,4.134a3.15,3.15,0,0,0,2.939-3.727H79.22v-3.064h8.042c-.134,1.985.327,3.992-.354,5.917m-23.2-.782a5.532,5.532,0,0,1-5.549,4.7,9.429,9.429,0,0,1-2.978-.41,4.738,4.738,0,0,1-3.546-4.931v-1.436h.071a13.885,13.885,0,0,1,.021-2.437,5.89,5.89,0,0,1,6.964-4.488c2.966.47,5.3,2.6,5.079,5.965-.065,1.011.062,2.036-.062,3.034m-3.127-3.81a2.644,2.644,0,0,0-2.868-2.568,2.579,2.579,0,0,0-2.889,2.52c-.045,1.123-.042,2.253-.006,3.376a2.637,2.637,0,0,0,2.871,2.571,2.59,2.59,0,0,0,2.886-2.523c.03-.562.006-1.126.006-1.688h0c0-.562.021-1.126,0-1.688M46.537,174.41a2.765,2.765,0,0,1-2.33-2.978c-.015-2.559-.006-5.118-.006-7.763H42.447v-2.488h1.718V157.13h3.159v4h2.868v2.476H47.339v3.855c0,.987-.018,1.97.009,2.957.03,1.067.383,1.376,1.468,1.367.446,0,.889,0,1.382,0v2.663a23.464,23.464,0,0,1-3.662-.039M34.815,163.7a2.478,2.478,0,0,0-1.95,2.446c-.045,1.094-.042,2.193-.012,3.29a2.566,2.566,0,0,0,2.488,2.675,2.5,2.5,0,0,0,3.046-2.184c.03-.137.071-.27.113-.431.2-.018.392-.048.585-.051.755-.006,1.513,0,2.25,0a4.334,4.334,0,0,1-2.461,4.607,6.908,6.908,0,0,1-7.347-.6,4.5,4.5,0,0,1-1.917-3.766c-.018-1.013-.009-2.027,0-3.04a5.537,5.537,0,0,1,5.48-5.68,6.681,6.681,0,0,1,4.4,1.141,4.694,4.694,0,0,1,1.962,4.241H38.527c-.594-2.265-1.849-3.144-3.712-2.645m-11.16,9.609a5.09,5.09,0,0,1-4.384,1.468c-3.091-.125-4.99-2.815-3.843-5.543.811-1.929,2.5-2.562,4.431-2.654,1.2-.056,2.41-.009,3.659-.009.217-2.1-.282-2.945-1.786-3.124-1.742-.205-3.162.214-3.121,1.7H15.948a2.981,2.981,0,0,1,1.48-3.3,7.681,7.681,0,0,1,4.984-.814,7.828,7.828,0,0,1,1.8.431,3.555,3.555,0,0,1,2.517,3.6c.018,2.419.015,4.839.039,7.258.006.672.068,1.343.107,2.066H23.842c-.053-.3-.1-.594-.187-1.079m-.1-4.422c-1.257,0-2.41-.006-3.561.006a2.61,2.61,0,0,0-.577.116,1.474,1.474,0,0,0-1.207,1.349,1.443,1.443,0,0,0,.832,1.608,3.727,3.727,0,0,0,3.564-.149c1.07-.657.993-1.777.948-2.93M8.025,167.506c-1.516.018-3.032,0-4.666,0v6.877H0V156.019c3.043,0,6.042-.232,8.99.059,3.257.321,5,2.868,4.755,6.235a5.6,5.6,0,0,1-5.721,5.192m2.363-6.125a2.439,2.439,0,0,0-2.223-2.464c-1.554-.166-3.127-.158-4.761-.229v6.1a50.9,50.9,0,0,0,5.171-.461c1.32-.25,1.932-1.48,1.813-2.945M129.1,185.335v13.93c0,2.164.473,2.612,2.657,2.523.193-.009.383,0,.583,0,.273.782.062,1.141-.758,1.275-2.607.419-3.962-.681-3.962-3.287q0-7.178,0-14.352v-1H129.1ZM107.785,192.9c.051,3.311.018,6.625.018,9.989h-1.254c-.051-.523-.1-1.067-.175-1.855a4.287,4.287,0,0,1-3.234,2.161,8.5,8.5,0,0,1-2.181-.006,3.465,3.465,0,0,1-3.248-3.391,3.543,3.543,0,0,1,3.124-3.87,32.05,32.05,0,0,1,4.113-.208c.419-.018.838,0,1.248,0,.446-3.106-.119-4.289-1.932-4.726-2.565-.615-4.241.33-4.654,2.583H98.482a2.752,2.752,0,0,1,1.441-3.207,6.816,6.816,0,0,1,6.1-.149,2.853,2.853,0,0,1,1.759,2.681m-1.492,3.962c-1.444,0-2.818-.024-4.185.015a4.8,4.8,0,0,0-1.388.3,2.184,2.184,0,0,0-1.5,1.953,2.4,2.4,0,0,0,1,2.36,3.9,3.9,0,0,0,6.069-2.6,19.054,19.054,0,0,0,.009-2.027m-19.925,2.8a4.564,4.564,0,0,1-4.271,3.186c-2.627.172-5.272.042-7.959.042V184.4c1.715,0,3.394-.012,5.073.006a21.7,21.7,0,0,1,3.112.128,3.98,3.98,0,0,1,3.7,3.465,4.482,4.482,0,0,1-2.559,5.091c-.122.059-.241.116-.484.232,3.186,1.254,4.363,3.522,3.385,6.339M84.511,188.91a2.885,2.885,0,0,0-2.535-2.93c-2.045-.2-4.125-.048-6.229-.048v6.744c1.947,0,3.816.015,5.689-.015a2.927,2.927,0,0,0,1.04-.309,3.3,3.3,0,0,0,2.036-3.442m-2.089,5.546c-2.187-.339-4.437-.288-6.717-.41v6.714c0,.22.021.443.03.687,2.137,0,4.188.131,6.215-.039a3.329,3.329,0,0,0,3.073-3.35,3.158,3.158,0,0,0-2.6-3.6M56.93,196.691a4.287,4.287,0,0,0,1.418,4.693c1.721,1.1,3.813.752,5.888-1,.33.205.675.425,1.058.666a4.465,4.465,0,0,1-2.473,1.9,6.983,6.983,0,0,1-4.393.018,4.178,4.178,0,0,1-3.118-3.882,31.844,31.844,0,0,1,0-4.966c.235-2.874,2.6-4.645,5.8-4.479a4.633,4.633,0,0,1,4.455,4.954c0,.669,0,1.337,0,2.1Zm5.489-5.3a3.638,3.638,0,0,0-4.063.152,3.988,3.988,0,0,0-1.447,4.063h7.16c.071-1.715-.065-3.3-1.649-4.214m-17.137-1.554c2.271-.672,4.093.024,5.626,2.3v-7.68h1.418V202.9H50.965v-2.262a15.6,15.6,0,0,1-1.51,1.623,4.55,4.55,0,0,1-5.07.526,3.975,3.975,0,0,1-2.268-4c.009-1.379,0-2.758,0-4.134,0-2.541,1.091-4.2,3.162-4.812M43.6,196.465c0,.731,0,1.459,0,2.19a3.2,3.2,0,0,0,1.058,2.479,3.71,3.71,0,0,0,5.59-1.055c.895-1.474.954-5.787.1-7.282a3.8,3.8,0,0,0-4.194-1.777,3.3,3.3,0,0,0-2.553,3.421c-.015.675,0,1.349,0,2.024m-8.233-6.833c2.7.11,4.5,2.1,4.515,4.984,0,.645,0,1.293,0,2.063H31.233c-.479,2.051.146,3.953,1.528,4.764,1.748,1.022,3.905.645,5.769-1.073l1.091.669a4.891,4.891,0,0,1-3.905,2.205,9.134,9.134,0,0,1-2.428-.146,4.31,4.31,0,0,1-3.676-4.128,36.731,36.731,0,0,1,0-4.717c.205-2.942,2.517-4.749,5.757-4.622m-4.253,5.962h7.255c.113-1.62-.036-3.13-1.459-4.1a3.551,3.551,0,0,0-4.06-.059c-1.5.939-1.825,2.443-1.736,4.155M16.409,184.4a57.3,57.3,0,0,1,6.152.137,4.915,4.915,0,0,1,4.648,4.83A5.158,5.158,0,0,1,23,195.122c-.134.036-.27.065-.544.131l5.48,7.54c-1.382.366-1.685.265-2.47-.82-1.45-2.006-2.919-4-4.342-6.027a1.307,1.307,0,0,0-1.257-.621c-1.061.042-2.128.012-3.323.012V202.9H15.012V184.4c.464,0,.93-.006,1.4,0m.208,9.564c.267.018.487.048.7.042,1.6-.045,3.21,0,4.8-.163a3.579,3.579,0,0,0,3.454-3.751c.1-2.214-.969-3.825-3.13-4.1a46.9,46.9,0,0,0-5.825-.051Zm74.076-1.679a24.7,24.7,0,0,1,2.529-1.994,4.764,4.764,0,0,1,3.222-.419v1.379a15.442,15.442,0,0,0-1.62.006,4.194,4.194,0,0,0-4.054,4.339c-.065,2.107-.024,4.217-.027,6.328v.966H89.29V190.037h1.4Zm23.782,9.751a7.086,7.086,0,0,0,2.6-.5,2.163,2.163,0,0,0,1.3-2.336,2,2,0,0,0-1.661-1.878c-1.082-.3-2.19-.5-3.275-.794-1.985-.529-2.927-1.629-2.886-3.308a3.534,3.534,0,0,1,3.133-3.433,6.566,6.566,0,0,1,5.632,1.2c-.541.633-.933,1-1.807.44a4.475,4.475,0,0,0-3.745-.449,2.258,2.258,0,0,0-1.727,2.057,1.932,1.932,0,0,0,1.608,2c1.126.348,2.288.565,3.43.865,1.444.38,2.615,1.088,2.874,2.713a3.79,3.79,0,0,1-1.905,3.923,7.038,7.038,0,0,1-8.031-1.156c.333-.288.63-.541,1-.862a5.05,5.05,0,0,0,3.457,1.522m9.487-15.211h-1.346v-2.532h1.346Zm.015,16.052h-1.361V190h1.361Z" transform="translate(0 0.001)" fill="#418fde" fill-rule="evenodd"/>
    </g>
  </g>
</svg>
